<svg width="733" height="733" viewBox="0 0 733 733" fill="none" xmlns="http://www.w3.org/2000/svg">
<g filter="url(#filter0_d)">
<g clip-path="url(#clip0)">
<path fill-rule="evenodd" clip-rule="evenodd" d="M179.03 13.9683H520.647C536.523 14.1828 552.381 16.4509 567.596 21.0062C582.053 25.3593 595.956 31.5981 608.72 39.6676C631.911 54.1711 651.452 74.428 665.176 98.0779C672.642 110.884 678.356 124.69 682.239 138.996C685.975 153.017 687.863 167.512 688.031 182.023V522.281C687.838 535.406 686.279 548.522 683.169 561.286C676.208 589.919 661.519 616.611 641.122 637.868C616.752 663.461 584.145 681.186 549.303 687.282C539.861 689.042 530.258 689.819 520.667 689.999H179.393C162.125 689.753 144.844 687.112 128.429 681.702C115.401 677.434 102.878 671.609 91.2861 664.282C68.1148 649.783 48.5828 629.544 34.866 605.908C27.3907 593.092 21.669 579.272 17.789 564.959C14.0768 551.051 12.2077 536.678 12 522.292V181.681C12.1719 177.759 12.1444 173.822 12.5598 169.914C14.3877 145.056 21.8905 120.634 34.3131 99.0214C46.0768 78.4276 62.2405 60.3852 81.3819 46.3864C100.289 32.5526 122.113 22.6897 145.031 17.7781C156.203 15.3767 167.611 14.1649 179.03 13.9683Z" fill="white"/>
<path fill-rule="evenodd" clip-rule="evenodd" d="M329.619 71.2617C341.596 68.4312 354.13 68.0433 366.271 70.0363C383.559 72.8998 399.96 80.8317 412.983 92.557C427.075 105.226 437.388 122.257 441.455 140.799C435.899 144.151 430.8 148.243 426.089 152.7C421.544 156.96 417.219 161.456 412.671 165.713C398.411 179.614 384.147 193.519 369.837 207.378C365.306 211.87 360.564 216.19 356.629 221.247C354.351 224.001 352.391 226.997 350.405 229.969C348.345 226.825 346.32 223.656 343.953 220.736C341.346 217.391 338.441 214.289 335.423 211.314C318.709 195.05 301.987 178.79 285.268 162.53C280.479 157.926 275.816 153.179 270.881 148.721C267.633 145.876 264.172 143.291 260.58 140.894L260.443 140.806C263.85 125.894 271.122 111.898 281.22 100.427C293.819 86.0087 310.981 75.663 329.619 71.2617ZM349.747 321.265C352.065 324.853 354.377 328.487 357.231 331.684C357.105 331.855 356.978 332.032 356.863 332.212C357.113 332.257 357.615 332.345 357.87 332.392L357.684 332.402C352.375 332.873 347.022 332.754 341.729 332.187C344.662 328.743 347.269 325.046 349.747 321.265Z" fill="#FAAA31"/>
<path fill-rule="evenodd" clip-rule="evenodd" d="M148.819 146.232C164.287 133.726 183.853 126.413 203.706 125.62C205.121 126.155 206.649 125.856 208.121 125.876C209.692 125.813 211.315 126.131 212.843 125.612C229.676 126.275 246.324 131.591 260.442 140.809L260.58 140.897C259.817 142.754 259.668 144.778 259.278 146.731C258.009 153.925 257.957 161.253 258.016 168.53C258.02 190.6 258.016 212.669 258.02 234.74C257.939 241.799 258.161 248.894 259.467 255.848C259.872 258.379 260.496 260.869 261.072 263.365C254.872 262.182 248.584 261.331 242.264 261.387C211.279 261.362 180.298 261.387 149.316 261.376C142.77 261.281 136.214 261.848 129.796 263.137L129.763 263.144C121.035 249.75 115.888 233.955 115.536 217.959C116 216.159 116.057 214.208 115.539 212.423C115.807 200.522 118.656 188.647 123.789 177.892C129.546 165.598 138.26 154.739 148.819 146.232ZM328.948 330.072C333.106 331.142 337.374 331.623 341.595 332.336C338.352 335.986 334.923 339.49 331.172 342.629C330.447 338.441 330.018 334.198 328.948 330.072Z" fill="#F37A5D"/>
<path fill-rule="evenodd" clip-rule="evenodd" d="M203.706 125.62C206.747 125.458 209.796 125.458 212.843 125.612C211.315 126.13 209.692 125.813 208.121 125.876C206.649 125.855 205.121 126.155 203.706 125.62ZM115.539 212.423C116.057 214.208 116 216.158 115.536 217.959C115.448 216.113 115.423 214.262 115.539 212.423Z" fill="#F16341"/>
<path fill-rule="evenodd" clip-rule="evenodd" d="M441.455 140.799C455.42 132.028 471.806 127.113 488.263 126.637C489.545 127.113 490.919 126.948 492.26 126.968C493.372 126.964 494.528 127.077 495.587 126.634C510.108 127.092 524.52 131.049 537.311 137.96C549.596 144.643 560.402 154.091 568.49 165.519C577.87 178.671 583.576 194.466 584.482 210.61C583.89 212.49 584.337 214.472 584.233 216.409C584.289 218.103 583.908 219.867 584.486 221.514C583.665 237.289 578.261 252.817 569.246 265.795C561.768 264.218 554.088 264.087 546.477 264.164C517.139 264.161 487.802 264.164 458.472 264.168C452.321 264.179 446.177 264.771 440.149 265.992C442.688 257.334 443.993 248.32 444.015 239.3C444.029 220.528 444.018 201.758 444.018 182.984C443.972 174.642 444.135 166.302 443.909 157.967C443.589 152.196 442.952 146.397 441.458 140.799H441.455ZM357.868 332.392C362.499 332.103 367.099 331.37 371.64 330.427C370.545 334.849 369.76 339.331 369.098 343.838C364.989 340.342 361.195 336.494 357.683 332.402L357.868 332.392Z" fill="#F6E422"/>
<path fill-rule="evenodd" clip-rule="evenodd" d="M488.263 126.637C490.703 126.51 493.151 126.532 495.587 126.634C494.528 127.077 493.372 126.964 492.26 126.968C490.919 126.948 489.545 127.113 488.263 126.637Z" fill="#F4DF03"/>
<path fill-rule="evenodd" clip-rule="evenodd" d="M426.089 152.703C430.797 148.243 435.898 144.151 441.455 140.799C442.951 146.397 443.588 152.196 443.909 157.967C444.134 166.302 443.972 174.642 444.017 182.984C444.017 201.758 444.028 220.528 444.015 239.3C443.992 248.319 442.687 257.334 440.148 265.992C426.606 268.82 413.72 274.763 402.871 283.358C391.791 292.058 382.808 303.414 376.903 316.198C374.82 320.741 372.967 325.42 371.816 330.289C371.773 330.325 371.685 330.395 371.64 330.426C367.098 331.37 362.498 332.103 357.868 332.392C357.615 332.345 357.111 332.257 356.861 332.212C356.977 332.032 357.103 331.855 357.23 331.684C354.374 328.487 352.065 324.853 349.745 321.265L349.695 321.181C353.672 315.033 356.618 308.244 358.888 301.294C364.175 284.601 364.242 266.294 359.1 249.556C356.931 242.757 354.114 236.124 350.354 230.042L350.404 229.969C352.39 226.997 354.35 224.001 356.629 221.247C360.561 216.19 365.306 211.874 369.837 207.378C384.146 193.519 398.41 179.614 412.671 165.713C417.219 161.456 421.539 156.96 426.089 152.703Z" fill="#F19807"/>
<path fill-rule="evenodd" clip-rule="evenodd" d="M259.278 146.731C259.668 144.778 259.817 142.754 260.58 140.897C264.171 143.295 267.633 145.876 270.882 148.721C275.815 153.179 280.478 157.926 285.268 162.53C301.986 178.79 318.708 195.054 335.422 211.317C338.44 214.293 341.345 217.395 343.954 220.736C346.32 223.656 348.344 226.827 350.405 229.969L350.355 230.042C345.525 237.905 341.933 246.52 339.718 255.478C335.736 271.907 336.528 289.53 342.302 305.445C344.278 310.899 346.68 316.219 349.696 321.181L349.746 321.265C347.27 325.046 344.662 328.743 341.729 332.187L341.595 332.336C337.374 331.623 333.106 331.142 328.948 330.072C325.733 316.536 319.233 303.804 310.265 293.174C299.212 280.024 284.291 270.199 267.866 265.186C265.661 264.559 263.471 263.854 261.199 263.52C261.167 263.482 261.104 263.403 261.072 263.365C260.496 260.869 259.872 258.379 259.467 255.848C258.161 248.894 257.939 241.799 258.02 234.74C258.016 212.669 258.02 190.599 258.016 168.53C257.957 161.253 258.009 153.924 259.278 146.731Z" fill="#EE5112"/>
<path fill-rule="evenodd" clip-rule="evenodd" d="M584.233 216.409C584.337 214.472 583.89 212.49 584.482 210.61C584.714 214.237 584.739 217.887 584.486 221.514C583.908 219.867 584.289 218.103 584.233 216.409Z" fill="#F4E002"/>
<path fill-rule="evenodd" clip-rule="evenodd" d="M339.717 255.478C341.933 246.52 345.524 237.905 350.354 230.042C354.115 236.124 356.932 242.757 359.101 249.556C364.242 266.294 364.176 284.601 358.889 301.294C356.618 308.244 353.672 315.033 349.696 321.181C346.679 316.219 344.278 310.899 342.301 305.445C336.528 289.53 335.735 271.907 339.717 255.478Z" fill="#E64802"/>
<path fill-rule="evenodd" clip-rule="evenodd" d="M129.796 263.136C136.214 261.848 142.77 261.281 149.316 261.376C180.298 261.387 211.279 261.362 242.264 261.387C248.583 261.331 254.872 262.182 261.072 263.365C261.104 263.403 261.167 263.482 261.199 263.52C265.674 281.023 275.675 297.001 289.11 309.036C300.392 319.184 314.219 326.447 328.948 330.071C330.018 334.198 330.447 338.441 331.172 342.629L330.985 342.788C326.993 346.216 322.62 349.162 318.13 351.888L318.078 351.855C304.297 343.528 288.328 338.815 272.235 338.361C254.316 337.662 236.235 342.134 220.743 351.173L220.701 351.198C213.547 346.919 207.085 341.573 201.233 335.649C183.72 318.645 166.234 301.606 148.728 284.594C144.038 280.019 139.199 275.555 135.109 270.422C133.222 268.08 131.439 265.653 129.796 263.136Z" fill="#C94141"/>
<path fill-rule="evenodd" clip-rule="evenodd" d="M96.9518 277.087C106.804 270.309 118.026 265.475 129.763 263.143L129.796 263.136C131.44 265.653 133.222 268.08 135.109 270.422C139.2 275.555 144.039 280.019 148.729 284.594C166.235 301.606 183.72 318.645 201.233 335.649C207.085 341.573 213.547 346.919 220.702 351.198C213.673 355.306 207.226 360.363 201.452 366.095C181.826 385.204 162.174 404.284 142.552 423.395C137.599 428.103 133.13 433.317 129.282 438.969C114.613 435.951 100.758 429.089 89.4091 419.318C77.3648 409.026 68.1221 395.491 62.9602 380.513C59.1215 369.584 57.5412 357.877 58.1642 346.326C58.8051 332.494 62.8749 318.884 69.6708 306.84C76.3786 295.044 85.7547 284.766 96.9518 277.087ZM318.131 351.888C322.62 349.162 326.994 346.216 330.985 342.788C331.651 348.87 331.511 355.028 330.856 361.106C326.88 357.683 322.631 354.581 318.131 351.888Z" fill="#D388B1"/>
<path fill-rule="evenodd" clip-rule="evenodd" d="M261.198 263.52C263.47 263.854 265.66 264.559 267.865 265.186C284.29 270.199 299.211 280.024 310.264 293.174C319.232 303.804 325.732 316.536 328.948 330.072C314.218 326.447 300.392 319.184 289.109 309.036C275.674 297.002 265.674 281.024 261.198 263.52Z" fill="#C52B0C"/>
<path fill-rule="evenodd" clip-rule="evenodd" d="M440.149 265.992C446.177 264.771 452.321 264.179 458.472 264.168C487.802 264.164 517.14 264.161 546.477 264.164C554.088 264.087 561.768 264.218 569.246 265.795C565.606 271.231 561.222 276.135 556.521 280.674C538.261 298.446 519.995 316.212 501.724 333.979C497.027 338.561 492.38 343.247 487.053 347.118C484.496 349.1 481.724 350.778 479.038 352.57L478.968 352.528C467.049 345.106 453.42 340.416 439.456 338.903C423.646 337.187 407.361 339.202 392.633 345.289C388.235 347.095 383.887 349.096 379.869 351.653L379.798 351.609C376.109 349.264 372.552 346.718 369.196 343.921L369.099 343.838C369.76 339.331 370.546 334.848 371.64 330.427C371.686 330.395 371.774 330.325 371.816 330.289C378.989 328.828 385.872 326.142 392.425 322.92C415.287 311.628 433.019 290.474 440.149 265.992Z" fill="#B2C00B"/>
<path fill-rule="evenodd" clip-rule="evenodd" d="M569.246 265.795C583.472 268.463 597.013 274.738 608.302 283.805C618.389 291.91 626.756 302.181 632.53 313.769C639.86 328.332 643.061 344.92 641.709 361.162C640.635 375.504 635.917 389.547 628.259 401.708C617.474 418.995 600.608 432.372 581.324 438.938C577.687 440.231 573.916 441.105 570.151 441.967L570.12 441.918C566.384 435.907 561.955 430.33 556.927 425.348C539.17 408 521.36 390.716 503.561 373.413C498.71 368.757 494.07 363.875 488.872 359.6C485.766 357.023 482.453 354.709 479.038 352.572C481.724 350.78 484.493 349.1 487.052 347.118C492.379 343.248 497.027 338.562 501.724 333.983C519.99 316.216 538.258 298.448 556.518 280.678C561.222 276.135 565.606 271.235 569.246 265.795ZM369.196 343.92C372.548 346.719 376.109 349.265 379.798 351.61C375.996 354.005 372.236 356.483 368.781 359.368C368.7 358.476 368.643 357.589 368.683 356.702C369.243 354.931 369.18 352.962 368.675 351.188C368.675 348.759 368.932 346.333 369.196 343.92Z" fill="#B9D753"/>
<path fill-rule="evenodd" clip-rule="evenodd" d="M402.872 283.358C413.721 274.763 426.607 268.82 440.149 265.992C433.019 290.474 415.287 311.628 392.425 322.92C385.872 326.142 378.989 328.828 371.816 330.289C372.968 325.42 374.82 320.741 376.904 316.198C382.809 303.414 391.791 292.058 402.872 283.358Z" fill="#AF8002"/>
<path fill-rule="evenodd" clip-rule="evenodd" d="M220.742 351.173C236.235 342.134 254.316 337.663 272.234 338.361C288.328 338.815 304.296 343.529 318.078 351.855C312.566 355.229 306.57 357.732 300.482 359.859C283.254 365.652 264.378 366.345 246.745 361.982C237.636 359.619 228.75 356.144 220.742 351.173Z" fill="#812431"/>
<path fill-rule="evenodd" clip-rule="evenodd" d="M392.633 345.289C407.361 339.202 423.645 337.187 439.455 338.903C453.42 340.416 467.049 345.106 478.968 352.528C465.961 360.296 451.057 364.806 435.934 365.679C420.072 366.609 403.928 363.684 389.548 356.852C386.182 355.393 383.016 353.521 379.869 351.653C383.887 349.096 388.234 347.095 392.633 345.289Z" fill="#4B8F08"/>
<path fill-rule="evenodd" clip-rule="evenodd" d="M220.701 351.198L220.742 351.173C228.75 356.144 237.636 359.619 246.746 361.982C264.378 366.345 283.254 365.652 300.482 359.859C306.57 357.732 312.567 355.229 318.078 351.855L318.13 351.888C322.63 354.581 326.879 357.683 330.855 361.106L330.95 361.19C330.32 365.289 329.605 369.376 328.718 373.433L328.576 373.468C315.514 376.33 303.123 382.158 292.494 390.252C276.533 402.389 264.604 419.79 259.241 439.124L259.216 439.215C254.203 440.145 249.118 440.709 244.027 440.849C214.923 440.92 185.818 440.86 156.718 440.881C147.541 440.955 138.274 441.047 129.281 438.969C133.13 433.317 137.598 428.103 142.551 423.395C162.174 404.284 181.826 385.205 201.451 366.095C207.225 360.362 213.673 355.306 220.701 351.198Z" fill="#884B86"/>
<path fill-rule="evenodd" clip-rule="evenodd" d="M368.679 351.187C369.179 352.961 369.243 354.929 368.683 356.701C368.629 354.859 368.633 353.022 368.679 351.187Z" fill="#ADD037"/>
<path fill-rule="evenodd" clip-rule="evenodd" d="M379.798 351.609L379.87 351.653C383.016 353.521 386.183 355.393 389.548 356.852C403.928 363.684 420.072 366.609 435.935 365.679C451.057 364.806 465.961 360.296 478.968 352.528L479.038 352.57C482.454 354.708 485.767 357.022 488.873 359.599C494.066 363.873 498.713 368.756 503.559 373.412C521.361 390.714 539.171 407.999 556.927 425.347C561.956 430.328 566.384 435.907 570.12 441.916C562.715 443.496 555.113 443.785 547.565 443.697C517.855 443.697 488.155 443.704 458.445 443.695C451.899 443.662 445.354 443.015 438.951 441.62C438.919 441.615 438.849 441.596 438.815 441.589C435.741 428.899 429.741 416.955 421.671 406.711C409.006 390.597 390.893 378.799 370.957 373.971C370.912 373.956 370.824 373.937 370.778 373.925C369.792 369.137 369.147 364.296 368.704 359.434L368.785 359.366C372.236 356.482 375.999 354.003 379.798 351.609Z" fill="#4EA039"/>
<path fill-rule="evenodd" clip-rule="evenodd" d="M356.361 371.602C360.069 367.159 364.215 363.081 368.704 359.434C369.147 364.296 369.792 369.137 370.778 373.925C366.052 372.735 361.214 371.992 356.361 371.602ZM438.951 441.62C445.354 443.015 451.899 443.663 458.445 443.695C488.155 443.704 517.855 443.697 547.565 443.697C555.113 443.785 562.715 443.496 570.12 441.916L570.156 441.967C577.744 454.293 582.321 468.505 583.071 482.979C583.906 497.218 581.197 511.678 575.124 524.604C569.617 536.652 561.229 547.328 551.072 555.817C540.776 564.465 528.538 570.733 515.583 574.293C499.753 578.534 482.866 578.686 466.954 574.789C457.201 572.338 447.825 568.348 439.312 562.994L439.325 562.933C440.912 555.986 441.666 548.863 441.684 541.74C441.695 521.333 441.688 500.921 441.691 480.514C441.571 471.821 442.032 463.099 441.149 454.434C440.723 450.113 439.825 445.869 438.951 441.62Z" fill="#6CBEB0"/>
<path fill-rule="evenodd" clip-rule="evenodd" d="M328.718 373.432C329.605 369.376 330.32 365.289 330.95 361.19C334.622 364.397 338.062 367.866 341.188 371.611C336.999 371.908 332.823 372.545 328.718 373.432ZM129.281 438.969C138.273 441.047 147.541 440.955 156.717 440.88C185.818 440.86 214.923 440.92 244.026 440.849C249.118 440.709 254.203 440.147 259.216 439.215C257.952 443.733 256.998 448.342 256.438 453C255.417 460.591 255.738 468.271 255.681 475.908C255.685 496.801 255.681 517.699 255.681 538.596C255.582 546.783 256.216 555.014 258.146 562.987L258.157 563.032C245.435 570.968 230.858 575.955 215.901 577.196C199.25 578.676 182.162 575.918 167.008 568.797C154.942 563.296 144.157 555.06 135.513 545.019C126.182 534.086 119.422 520.893 116.398 506.818C112.743 490.545 113.969 473.242 119.721 457.596C122.176 451.047 125.408 444.789 129.281 438.97V438.969Z" fill="#A48DC1"/>
<path fill-rule="evenodd" clip-rule="evenodd" d="M341.387 371.602C346.298 371.149 351.259 371.175 356.175 371.602C353.657 375.046 351.027 378.421 348.749 382.041C346.795 379.017 344.813 375.999 342.502 373.233C342.076 372.726 341.717 372.164 341.387 371.602ZM348.707 473.92C350.686 476.781 352.558 479.725 354.763 482.426C358.784 487.64 363.611 492.142 368.32 496.72C386.995 514.889 405.674 533.054 424.349 551.222C428.952 555.589 433.906 559.62 439.325 562.933L439.311 562.993C436.057 577.32 429.245 590.795 419.794 602.03C410.748 612.763 399.273 621.477 386.428 627.158C372.439 633.445 356.861 636.107 341.584 634.891C326.651 633.812 312.014 628.924 299.363 620.931C278.724 608.062 263.498 586.777 258.157 563.032L258.146 562.987C265.73 558.351 272.269 552.267 278.523 546.004C297.201 527.825 315.901 509.667 334.566 491.475C339.956 486.214 344.777 480.352 348.707 473.92Z" fill="#79ADDC"/>
<path fill-rule="evenodd" clip-rule="evenodd" d="M328.718 373.432C332.824 372.545 336.999 371.909 341.189 371.611L341.387 371.602C341.717 372.166 342.076 372.726 342.502 373.233C344.813 376 346.795 379.017 348.749 382.041L348.756 382.126C345.017 388.119 342.119 394.619 339.89 401.313C335.024 416.562 334.471 433.138 338.225 448.69C340.369 457.571 344.021 466.056 348.742 473.867L348.707 473.92C344.777 480.352 339.958 486.214 334.566 491.475C315.902 509.668 297.202 527.825 278.523 546.005C272.269 552.268 265.73 558.351 258.146 562.987C256.217 555.014 255.583 546.783 255.682 538.596C255.682 517.699 255.686 496.801 255.682 475.908C255.738 468.272 255.418 460.591 256.438 453.001C256.998 448.342 257.953 443.733 259.217 439.215L259.241 439.124C266.364 437.881 273.23 435.409 279.808 432.441C298.043 423.896 313.253 409.03 322.127 390.943C324.87 385.367 327.172 379.528 328.576 373.468L328.718 373.432Z" fill="#4E60A7"/>
<path fill-rule="evenodd" clip-rule="evenodd" d="M356.175 371.602H356.361C361.214 371.992 366.052 372.735 370.778 373.925C370.823 373.937 370.911 373.956 370.957 373.972C372.433 381.919 375.626 389.464 379.348 396.605C385.52 408.04 394.213 418.1 404.614 425.889C414.73 433.459 426.46 438.916 438.815 441.589C438.849 441.596 438.919 441.615 438.951 441.621C439.824 445.866 440.722 450.112 441.149 454.434C442.032 463.099 441.571 471.821 441.691 480.513C441.688 500.921 441.695 521.332 441.684 541.74C441.666 548.863 440.912 555.986 439.325 562.933C433.906 559.62 428.952 555.589 424.35 551.222C405.675 533.054 386.995 514.889 368.32 496.72C363.611 492.142 358.785 487.64 354.763 482.424C352.558 479.725 350.686 476.781 348.707 473.919L348.743 473.865C356.521 461.282 361.062 446.683 361.717 431.899C362.52 414.513 357.957 396.904 348.757 382.125L348.75 382.041C351.027 378.421 353.657 375.044 356.175 371.602Z" fill="#338198"/>
<path fill-rule="evenodd" clip-rule="evenodd" d="M292.494 390.252C303.123 382.158 315.514 376.33 328.576 373.468C327.172 379.528 324.87 385.367 322.127 390.943C313.253 409.031 298.043 423.896 279.808 432.441C273.23 435.409 266.364 437.881 259.241 439.124C264.604 419.79 276.533 402.389 292.494 390.252Z" fill="#413374"/>
<path fill-rule="evenodd" clip-rule="evenodd" d="M370.957 373.972C390.893 378.799 409.006 390.597 421.671 406.712C429.742 416.956 435.741 428.899 438.815 441.589C426.46 438.917 414.73 433.459 404.614 425.889C394.214 418.1 385.52 408.04 379.348 396.605C375.627 389.464 372.433 381.919 370.957 373.972Z" fill="#256D31"/>
<path fill-rule="evenodd" clip-rule="evenodd" d="M348.756 382.126C357.956 396.904 362.52 414.513 361.716 431.899C361.062 446.683 356.52 461.282 348.742 473.865C344.02 466.056 340.369 457.571 338.225 448.69C334.471 433.139 335.024 416.562 339.89 401.313C342.118 394.619 345.016 388.119 348.756 382.126Z" fill="#214873"/>
</g>
</g>
<defs>
<filter id="filter0_d" x="0" y="0.968262" width="732.031" height="732.032" filterUnits="userSpaceOnUse" color-interpolation-filters="sRGB">
<feFlood flood-opacity="0" result="BackgroundImageFix"/>
<feColorMatrix in="SourceAlpha" type="matrix" values="0 0 0 0 0 0 0 0 0 0 0 0 0 0 0 0 0 0 127 0"/>
<feOffset dx="16" dy="15"/>
<feGaussianBlur stdDeviation="14"/>
<feColorMatrix type="matrix" values="0 0 0 0 0 0 0 0 0 0 0 0 0 0 0 0 0 0 0.11 0"/>
<feBlend mode="normal" in2="BackgroundImageFix" result="effect1_dropShadow"/>
<feBlend mode="normal" in="SourceGraphic" in2="effect1_dropShadow" result="shape"/>
</filter>
<clipPath id="clip0">
<rect width="676.031" height="676.031" fill="white" transform="translate(12 13.9683)"/>
</clipPath>
</defs>
</svg>
