<svg width="13" height="11" viewBox="0 0 13 11" fill="none" xmlns="http://www.w3.org/2000/svg">
<g clip-path="url(#clip0)">
<path d="M11.5664 1.20312C11.7487 1.20312 11.8991 1.14388 12.0176 1.02539C12.1361 0.906899 12.1953 0.765623 12.1953 0.601561C12.1953 0.437498 12.1361 0.296222 12.0176 0.177732C11.8991 0.0592431 11.7487 0 11.5664 0H0.628906C0.446614 0 0.296223 0.0592431 0.177734 0.177732C0.0592446 0.296222 0 0.437498 0 0.601561C0 0.765623 0.0592446 0.906899 0.177734 1.02539C0.296223 1.14388 0.446614 1.20312 0.628906 1.20312H11.5664ZM12.0039 4.29296C12.1315 4.16536 12.1953 4.01953 12.1953 3.85546C12.1953 3.6914 12.1361 3.55012 12.0176 3.43163C11.8991 3.31315 11.7487 3.2539 11.5664 3.2539H0.628906C0.446614 3.2539 0.296223 3.31315 0.177734 3.43163C0.0592446 3.55012 0 3.6914 0 3.85546C0 4.01953 0.0592446 4.1608 0.177734 4.27929C0.296223 4.39778 0.446614 4.45703 0.628906 4.45703H11.5664C11.7487 4.45703 11.8945 4.40234 12.0039 4.29296ZM12.1953 7.10937C12.1953 6.92708 12.1361 6.77669 12.0176 6.6582C11.8991 6.53971 11.7487 6.48047 11.5664 6.48047H0.628906C0.446614 6.48047 0.296223 6.53971 0.177734 6.6582C0.0592446 6.77669 0 6.92708 0 7.10937C0 7.27344 0.0592446 7.41471 0.177734 7.5332C0.296223 7.65169 0.446614 7.71094 0.628906 7.71094H11.5664C11.7487 7.71094 11.8991 7.65169 12.0176 7.5332C12.1361 7.41471 12.1953 7.27344 12.1953 7.10937ZM6.50781 10.7734C6.63542 10.6458 6.69922 10.5 6.69922 10.3359C6.69922 10.1719 6.63997 10.0306 6.52148 9.91211C6.403 9.79362 6.26172 9.73437 6.09766 9.73437H0.656246C0.492183 9.73437 0.350907 9.79362 0.232418 9.91211C0.113929 10.0306 0.054684 10.1719 0.054684 10.3359C0.054684 10.5 0.113929 10.6413 0.232418 10.7598C0.350907 10.8783 0.492183 10.9375 0.656246 10.9375H6.09766C6.26172 10.9375 6.39844 10.8828 6.50781 10.7734Z" fill="black"/>
</g>
<defs>
<clipPath id="clip0">
<rect width="12.1953" height="10.9375" fill="white"/>
</clipPath>
</defs>
</svg>
