<svg width="225" height="16" viewBox="0 0 225 16" fill="none" xmlns="http://www.w3.org/2000/svg">
<path d="M5.79999 4.52C4.53999 4.52 3.63999 5 2.95999 5.78V0.400001H0.23999V14H2.95999V9.5C2.95999 7.5 3.87999 6.82 4.79999 6.82C5.95999 6.82 6.45999 7.62 6.45999 8.98V14H9.17999V8.2C9.17999 5.42 7.35999 4.52 5.79999 4.52Z" fill="white"/>
<path d="M20.5891 9.4C20.5891 6.4 18.6091 4.52 15.8091 4.52C12.9091 4.52 10.8291 6.6 10.8291 9.42C10.8291 12.22 12.8691 14.3 16.1491 14.3C17.8291 14.3 19.0691 13.78 19.9691 12.9L18.1491 11.42C17.6091 11.98 16.9691 12.3 16.0691 12.3C14.6891 12.3 13.8691 11.44 13.6691 10.08H20.5891V9.4ZM15.8091 6.5C17.0691 6.5 17.7691 7.34 17.9091 8.54H13.7091C13.9291 7.32 14.6491 6.5 15.8091 6.5Z" fill="white"/>
<path d="M22.3884 14H25.1084V0.400001H22.3884V14Z" fill="white"/>
<path d="M27.6033 14H30.3233V0.400001H27.6033V14Z" fill="white"/>
<path d="M37.2381 14.3C40.2581 14.3 42.3781 12.22 42.3781 9.42C42.3781 6.6 40.2581 4.52 37.2381 4.52C34.2181 4.52 32.1181 6.6 32.1181 9.42C32.1181 12.22 34.2181 14.3 37.2381 14.3ZM37.2381 12C35.8981 12 34.9181 10.92 34.9181 9.42C34.9181 7.9 35.8981 6.82 37.2381 6.82C38.5981 6.82 39.5781 7.9 39.5781 9.42C39.5781 10.92 38.5981 12 37.2381 12Z" fill="white"/>
<path d="M51.3658 1.58C47.2458 1.58 43.8658 5.1 43.8658 9.36C43.8658 12.56 46.0658 15.04 49.6658 15.04C51.1458 15.04 52.4058 14.68 53.5258 14.08L53.1258 13.28C52.1858 13.8 51.1058 14.14 49.6858 14.14C46.6458 14.14 44.9058 12.06 44.9058 9.32C44.9058 5.76 47.6458 2.5 51.2858 2.5C54.9058 2.5 56.5458 4.74 56.5458 7.42C56.5458 10 55.3458 11.12 54.6658 11.12C54.1458 11.12 53.7058 10.7 53.9258 9.6L54.9458 4.76H52.5858L52.4258 5.56C51.9658 4.96 51.2858 4.56 50.2858 4.56C48.3258 4.56 46.5258 6.16 46.1058 8.52C45.6658 10.94 46.9258 12.58 48.9058 12.58C50.0658 12.58 50.9858 12.08 51.6458 11.36C52.0258 11.96 52.7658 12.54 53.7658 12.54C55.8058 12.54 57.5858 10.66 57.5858 7.42C57.5858 4.36 55.5858 1.58 51.3658 1.58ZM49.8858 10.68C48.9058 10.68 48.3658 9.88 48.5658 8.58C48.7658 7.34 49.6258 6.44 50.6458 6.44C51.6658 6.44 52.2458 7.36 52.0458 8.68C51.8458 9.84 50.9658 10.68 49.8858 10.68Z" fill="white"/>
<path d="M70.5508 4.52C68.9708 4.52 68.1308 5.14 67.5708 5.84C67.0108 4.98 66.1108 4.52 64.9508 4.52C63.9708 4.52 63.0108 4.96 62.4708 5.9L62.1908 4.76H59.7908V14H62.5108V8.88C62.5908 7.52 63.1308 6.82 64.1108 6.82C65.1108 6.82 65.4908 7.64 65.4908 8.86V14H68.2108V9.22C68.2108 7.7 68.7108 6.82 69.7908 6.82C70.7708 6.82 71.1908 7.64 71.1908 8.86V14H73.9108V8.56C73.9108 5.88 72.7108 4.52 70.5508 4.52Z" fill="white"/>
<path d="M85.3742 9.4C85.3742 6.4 83.3942 4.52 80.5942 4.52C77.6942 4.52 75.6142 6.6 75.6142 9.42C75.6142 12.22 77.6542 14.3 80.9342 14.3C82.6142 14.3 83.8542 13.78 84.7542 12.9L82.9342 11.42C82.3942 11.98 81.7542 12.3 80.8542 12.3C79.4742 12.3 78.6542 11.44 78.4542 10.08H85.3742V9.4ZM80.5942 6.5C81.8542 6.5 82.5542 7.34 82.6942 8.54H78.4942C78.7142 7.32 79.4342 6.5 80.5942 6.5Z" fill="white"/>
<path d="M92.3355 4.76H90.3955V2.08H87.6755V4.76H86.4555V6.82H87.6755V14H90.3955V6.82H92.3355V4.76Z" fill="white"/>
<path d="M100.714 4.76L100.414 5.86C99.7142 5.06 98.7342 4.52 97.3942 4.52C94.9942 4.52 93.1142 6.34 93.1142 9.42C93.1142 12.48 94.9942 14.3 97.3942 14.3C98.7342 14.3 99.7342 13.76 100.414 12.96L100.694 14.02H102.934V4.76H100.714ZM98.1542 12C96.8342 12 95.8942 10.92 95.8942 9.42C95.8942 7.9 96.8342 6.82 98.1542 6.82C99.5142 6.82 100.474 7.9 100.474 9.42C100.474 10.92 99.5142 12 98.1542 12Z" fill="white"/>
<path d="M111.795 0.400001V5.64C111.115 4.96 110.195 4.52 108.975 4.52C106.555 4.52 104.675 6.34 104.675 9.42C104.675 12.48 106.555 14.3 108.975 14.3C110.315 14.3 111.295 13.76 111.975 12.96L112.275 14.02H114.515V0.420001L111.795 0.400001ZM109.735 12C108.415 12 107.475 10.92 107.475 9.42C107.475 7.9 108.415 6.82 109.735 6.82C111.075 6.82 112.035 7.9 112.035 9.42C112.035 10.92 111.075 12 109.735 12Z" fill="white"/>
<path d="M123.917 4.76L123.617 5.86C122.917 5.06 121.937 4.52 120.597 4.52C118.197 4.52 116.317 6.34 116.317 9.42C116.317 12.48 118.197 14.3 120.597 14.3C121.937 14.3 122.937 13.76 123.617 12.96L123.897 14.02H126.137V4.76H123.917ZM121.357 12C120.037 12 119.097 10.92 119.097 9.42C119.097 7.9 120.037 6.82 121.357 6.82C122.717 6.82 123.677 7.9 123.677 9.42C123.677 10.92 122.717 12 121.357 12Z" fill="white"/>
<path d="M133.878 4.76H131.938V2.08H129.218V4.76H127.998V6.82H129.218V14H131.938V6.82H133.878V4.76Z" fill="white"/>
<path d="M142.257 4.76L141.957 5.86C141.257 5.06 140.277 4.52 138.937 4.52C136.537 4.52 134.657 6.34 134.657 9.42C134.657 12.48 136.537 14.3 138.937 14.3C140.277 14.3 141.277 13.76 141.957 12.96L142.237 14.02H144.477V4.76H142.257ZM139.697 12C138.377 12 137.437 10.92 137.437 9.42C137.437 7.9 138.377 6.82 139.697 6.82C141.057 6.82 142.017 7.9 142.017 9.42C142.017 10.92 141.057 12 139.697 12Z" fill="white"/>
<path d="M151.178 2.3C151.438 2.3 151.718 2.36 151.938 2.48L152.698 0.46C152.138 0.16 151.578 0 150.798 0C148.918 0 147.478 1.34 147.478 3.96V4.76H146.338V6.82H147.478V14H150.198V6.82H152.038V4.76H150.198V3.62C150.198 2.82 150.538 2.3 151.178 2.3ZM155.258 3.3C156.118 3.3 156.818 2.64 156.818 1.8C156.818 0.98 156.118 0.3 155.258 0.3C154.398 0.3 153.698 0.98 153.698 1.8C153.698 2.64 154.398 3.3 155.258 3.3ZM153.818 14H156.518V4.76H153.818V14Z" fill="white"/>
<path d="M167.787 14L164.287 9.18L167.387 4.76H164.387L162.747 7.4L161.107 4.76H158.107L161.207 9.18L157.707 14H160.767L162.747 10.98L164.727 14H167.787Z" fill="white"/>
<path d="M177.952 9.4C177.952 6.4 175.972 4.52 173.172 4.52C170.272 4.52 168.192 6.6 168.192 9.42C168.192 12.22 170.232 14.3 173.512 14.3C175.192 14.3 176.432 13.78 177.332 12.9L175.512 11.42C174.972 11.98 174.332 12.3 173.432 12.3C172.052 12.3 171.232 11.44 171.032 10.08H177.952V9.4ZM173.172 6.5C174.432 6.5 175.132 7.34 175.272 8.54H171.072C171.292 7.32 172.012 6.5 173.172 6.5Z" fill="white"/>
<path d="M184.812 4.52C183.632 4.52 182.972 5.18 182.472 6L182.132 4.76H179.752V14H182.472V9.6C182.472 8.1 183.252 6.86 184.632 6.86C184.972 6.86 185.292 6.94 185.552 7.06L186.312 4.86C186.312 4.86 185.712 4.52 184.812 4.52Z" fill="white"/>
<path d="M186.759 14.22C187.619 14.22 188.299 13.54 188.299 12.72C188.299 11.88 187.619 11.2 186.759 11.2C185.899 11.2 185.199 11.88 185.199 12.72C185.199 13.54 185.899 14.22 186.759 14.22Z" fill="white"/>
<path d="M194.696 14.3C196.116 14.3 197.136 13.92 198.036 13.28L196.536 11.24C196.096 11.72 195.456 11.96 194.836 11.96C193.416 11.96 192.496 10.92 192.496 9.42C192.496 7.9 193.416 6.86 194.836 6.86C195.456 6.86 196.096 7.1 196.536 7.58L198.056 5.54C197.136 4.9 196.116 4.52 194.696 4.52C191.816 4.52 189.716 6.6 189.716 9.42C189.716 12.22 191.816 14.3 194.696 14.3Z" fill="white"/>
<path d="M203.918 14.3C206.938 14.3 209.058 12.22 209.058 9.42C209.058 6.6 206.938 4.52 203.918 4.52C200.898 4.52 198.798 6.6 198.798 9.42C198.798 12.22 200.898 14.3 203.918 14.3ZM203.918 12C202.578 12 201.598 10.92 201.598 9.42C201.598 7.9 202.578 6.82 203.918 6.82C205.278 6.82 206.258 7.9 206.258 9.42C206.258 10.92 205.278 12 203.918 12Z" fill="white"/>
<path d="M221.605 4.52C220.025 4.52 219.185 5.14 218.625 5.84C218.065 4.98 217.165 4.52 216.005 4.52C215.025 4.52 214.065 4.96 213.525 5.9L213.245 4.76H210.845V14H213.565V8.88C213.645 7.52 214.185 6.82 215.165 6.82C216.165 6.82 216.545 7.64 216.545 8.86V14H219.265V9.22C219.265 7.7 219.765 6.82 220.845 6.82C221.825 6.82 222.245 7.64 222.245 8.86V14H224.965V8.56C224.965 5.88 223.765 4.52 221.605 4.52Z" fill="white"/>
</svg>
