<svg width="37" height="36" viewBox="0 0 37 36" fill="none" xmlns="http://www.w3.org/2000/svg">
<path d="M8.49992 28C7.89592 28 7.33492 28.3 6.99992 28.803L4.86792 32H10.3229L11.0009 30.305L9.99992 28.803C9.66492 28.3 9.10392 28 8.49992 28Z" fill="black"/>
<path d="M25 10H1C0.448 10 0 10.448 0 11V35C0 35.552 0.448 36 1 36H25C25.552 36 26 35.552 26 35V11C26 10.448 25.552 10 25 10ZM3 13H23V17H3V13ZM5 21C6.105 21 7 21.895 7 23C7 24.105 6.105 25 5 25C3.895 25 3 24.105 3 23C3 21.895 3.895 21 5 21ZM1.132 34L5.336 27.693C6.043 26.633 7.226 26 8.5 26C9.774 26 10.957 26.633 11.664 27.693L11.902 28.05L13.328 24.486C13.933 22.976 15.374 22 17 22C18.626 22 20.067 22.976 20.672 24.485L24.477 34H1.132Z" fill="black"/>
<path d="M17 24C16.196 24 15.4841 24.482 15.1861 25.229L12.4771 32H21.524L18.815 25.229C18.516 24.482 17.804 24 17 24Z" fill="black"/>
<rect width="26" height="26" transform="translate(11)" fill="white"/>
<path d="M36 0H12C11.448 0 11 0.448 11 1V25C11 25.552 11.448 26 12 26H36C36.552 26 37 25.552 37 25V1C37 0.448 36.552 0 36 0ZM18 23V11L30 17L18 23ZM34 7H14V3H34V7Z" fill="black"/>
</svg>
