<svg width="267" height="53" viewBox="0 0 267 53" fill="none" xmlns="http://www.w3.org/2000/svg">
<path d="M78.3076 19.1885V25H75.5898V9.35938H81.5732C83.3206 9.35938 84.7064 9.81413 85.7305 10.7236C86.7617 11.6331 87.2773 12.8363 87.2773 14.333C87.2773 15.8656 86.7725 17.0579 85.7627 17.9102C84.7601 18.7624 83.3529 19.1885 81.541 19.1885H78.3076ZM78.3076 17.0078H81.5732C82.54 17.0078 83.2777 16.7822 83.7861 16.3311C84.2946 15.8727 84.5488 15.2139 84.5488 14.3545C84.5488 13.5094 84.291 12.8363 83.7754 12.335C83.2598 11.8265 82.5508 11.5651 81.6484 11.5508H78.3076V17.0078ZM91.9824 14.6445C92.8346 13.6562 93.9124 13.1621 95.2158 13.1621C97.6937 13.1621 98.9505 14.5765 98.9863 17.4053V25H96.376V17.502C96.376 16.6999 96.2005 16.1341 95.8496 15.8047C95.5059 15.4681 94.9974 15.2998 94.3242 15.2998C93.2786 15.2998 92.498 15.7653 91.9824 16.6963V25H89.3721V8.5H91.9824V14.6445ZM101.146 19.0811C101.146 17.9424 101.371 16.9183 101.822 16.0088C102.273 15.0921 102.907 14.3903 103.724 13.9033C104.54 13.4092 105.478 13.1621 106.538 13.1621C108.106 13.1621 109.378 13.667 110.352 14.6768C111.333 15.6865 111.863 17.0257 111.941 18.6943L111.952 19.3066C111.952 20.4525 111.73 21.4766 111.286 22.3789C110.849 23.2812 110.219 23.9795 109.396 24.4736C108.579 24.9678 107.634 25.2148 106.56 25.2148C104.92 25.2148 103.605 24.6706 102.617 23.582C101.636 22.4863 101.146 21.029 101.146 19.21V19.0811ZM103.756 19.3066C103.756 20.5026 104.003 21.4408 104.497 22.1211C104.991 22.7943 105.679 23.1309 106.56 23.1309C107.44 23.1309 108.124 22.7871 108.611 22.0996C109.105 21.4121 109.353 20.4059 109.353 19.0811C109.353 17.9066 109.098 16.9756 108.59 16.2881C108.089 15.6006 107.405 15.2568 106.538 15.2568C105.686 15.2568 105.009 15.597 104.508 16.2773C104.007 16.9505 103.756 17.9603 103.756 19.3066ZM117.431 10.5518V13.377H119.482V15.3105H117.431V21.7988C117.431 22.2428 117.517 22.5651 117.688 22.7656C117.868 22.959 118.183 23.0557 118.634 23.0557C118.935 23.0557 119.239 23.0199 119.547 22.9482V24.9678C118.952 25.1325 118.38 25.2148 117.828 25.2148C115.823 25.2148 114.82 24.1084 114.82 21.8955V15.3105H112.908V13.377H114.82V10.5518H117.431ZM120.675 19.0811C120.675 17.9424 120.9 16.9183 121.352 16.0088C121.803 15.0921 122.437 14.3903 123.253 13.9033C124.069 13.4092 125.007 13.1621 126.067 13.1621C127.636 13.1621 128.907 13.667 129.881 14.6768C130.862 15.6865 131.392 17.0257 131.471 18.6943L131.481 19.3066C131.481 20.4525 131.259 21.4766 130.815 22.3789C130.379 23.2812 129.748 23.9795 128.925 24.4736C128.108 24.9678 127.163 25.2148 126.089 25.2148C124.449 25.2148 123.135 24.6706 122.146 23.582C121.165 22.4863 120.675 21.029 120.675 19.21V19.0811ZM123.285 19.3066C123.285 20.5026 123.532 21.4408 124.026 22.1211C124.521 22.7943 125.208 23.1309 126.089 23.1309C126.97 23.1309 127.654 22.7871 128.141 22.0996C128.635 21.4121 128.882 20.4059 128.882 19.0811C128.882 17.9066 128.628 16.9756 128.119 16.2881C127.618 15.6006 126.934 15.2568 126.067 15.2568C125.215 15.2568 124.538 15.597 124.037 16.2773C123.536 16.9505 123.285 17.9603 123.285 19.3066ZM140.204 21.8418C140.204 21.3763 140.011 21.0218 139.624 20.7783C139.244 20.5348 138.611 20.32 137.723 20.1338C136.835 19.9476 136.093 19.7113 135.499 19.4248C134.196 18.7946 133.544 17.8815 133.544 16.6855C133.544 15.6829 133.966 14.8451 134.812 14.1719C135.657 13.4987 136.731 13.1621 138.034 13.1621C139.424 13.1621 140.544 13.5059 141.396 14.1934C142.256 14.8809 142.686 15.7725 142.686 16.8682H140.075C140.075 16.3669 139.889 15.9515 139.517 15.6221C139.144 15.2855 138.65 15.1172 138.034 15.1172C137.461 15.1172 136.992 15.2497 136.627 15.5146C136.269 15.7796 136.09 16.1341 136.09 16.5781C136.09 16.9792 136.258 17.2907 136.595 17.5127C136.931 17.7347 137.612 17.9603 138.636 18.1895C139.66 18.4115 140.462 18.68 141.042 18.9951C141.629 19.3031 142.062 19.6755 142.342 20.1123C142.628 20.5492 142.771 21.0791 142.771 21.7021C142.771 22.7477 142.338 23.5964 141.472 24.248C140.605 24.8926 139.47 25.2148 138.066 25.2148C137.114 25.2148 136.265 25.043 135.521 24.6992C134.776 24.3555 134.196 23.8828 133.78 23.2812C133.365 22.6797 133.157 22.0316 133.157 21.3369H135.692C135.728 21.9528 135.961 22.429 136.391 22.7656C136.82 23.0951 137.39 23.2598 138.099 23.2598C138.786 23.2598 139.309 23.1309 139.667 22.873C140.025 22.6081 140.204 22.2643 140.204 21.8418ZM150.785 25V9.35938H155.404C156.786 9.35938 158.011 9.66732 159.078 10.2832C160.152 10.8991 160.983 11.7728 161.57 12.9043C162.158 14.0358 162.451 15.332 162.451 16.793V17.5771C162.451 19.0596 162.154 20.363 161.56 21.4873C160.972 22.6117 160.131 23.4782 159.035 24.0869C157.947 24.6956 156.697 25 155.286 25H150.785ZM153.503 11.5508V22.8301H155.275C156.701 22.8301 157.793 22.3861 158.552 21.498C159.318 20.6029 159.708 19.321 159.723 17.6523V16.7822C159.723 15.085 159.354 13.7887 158.616 12.8936C157.879 11.9984 156.808 11.5508 155.404 11.5508H153.503ZM164.417 19.0811C164.417 17.9424 164.643 16.9183 165.094 16.0088C165.545 15.0921 166.179 14.3903 166.995 13.9033C167.812 13.4092 168.75 13.1621 169.81 13.1621C171.378 13.1621 172.649 13.667 173.623 14.6768C174.604 15.6865 175.134 17.0257 175.213 18.6943L175.224 19.3066C175.224 20.4525 175.002 21.4766 174.558 22.3789C174.121 23.2812 173.491 23.9795 172.667 24.4736C171.851 24.9678 170.905 25.2148 169.831 25.2148C168.191 25.2148 166.877 24.6706 165.889 23.582C164.908 22.4863 164.417 21.029 164.417 19.21V19.0811ZM167.027 19.3066C167.027 20.5026 167.274 21.4408 167.769 22.1211C168.263 22.7943 168.95 23.1309 169.831 23.1309C170.712 23.1309 171.396 22.7871 171.883 22.0996C172.377 21.4121 172.624 20.4059 172.624 19.0811C172.624 17.9066 172.37 16.9756 171.861 16.2881C171.36 15.6006 170.676 15.2568 169.81 15.2568C168.957 15.2568 168.281 15.597 167.779 16.2773C167.278 16.9505 167.027 17.9603 167.027 19.3066ZM187.642 21.4014L189.489 13.377H192.035L188.866 25H186.718L184.226 17.0186L181.776 25H179.628L176.448 13.377H178.994L180.874 21.3154L183.259 13.377H185.225L187.642 21.4014ZM196.203 13.377L196.278 14.7197C197.138 13.6813 198.266 13.1621 199.662 13.1621C202.083 13.1621 203.314 14.5479 203.357 17.3193V25H200.747V17.4697C200.747 16.7321 200.586 16.1878 200.264 15.8369C199.949 15.4788 199.429 15.2998 198.706 15.2998C197.653 15.2998 196.869 15.776 196.354 16.7285V25H193.743V13.377H196.203ZM208.804 25H206.193V8.5H208.804V25ZM211.167 19.0811C211.167 17.9424 211.393 16.9183 211.844 16.0088C212.295 15.0921 212.929 14.3903 213.745 13.9033C214.562 13.4092 215.5 13.1621 216.56 13.1621C218.128 13.1621 219.399 13.667 220.373 14.6768C221.354 15.6865 221.884 17.0257 221.963 18.6943L221.974 19.3066C221.974 20.4525 221.752 21.4766 221.308 22.3789C220.871 23.2812 220.241 23.9795 219.417 24.4736C218.601 24.9678 217.655 25.2148 216.581 25.2148C214.941 25.2148 213.627 24.6706 212.639 23.582C211.658 22.4863 211.167 21.029 211.167 19.21V19.0811ZM213.777 19.3066C213.777 20.5026 214.024 21.4408 214.519 22.1211C215.013 22.7943 215.7 23.1309 216.581 23.1309C217.462 23.1309 218.146 22.7871 218.633 22.0996C219.127 21.4121 219.374 20.4059 219.374 19.0811C219.374 17.9066 219.12 16.9756 218.611 16.2881C218.11 15.6006 217.426 15.2568 216.56 15.2568C215.707 15.2568 215.031 15.597 214.529 16.2773C214.028 16.9505 213.777 17.9603 213.777 19.3066ZM231.126 25C231.011 24.778 230.911 24.4163 230.825 23.915C229.994 24.7816 228.978 25.2148 227.774 25.2148C226.607 25.2148 225.655 24.8818 224.917 24.2158C224.179 23.5498 223.811 22.7262 223.811 21.7451C223.811 20.5062 224.269 19.5573 225.186 18.8984C226.109 18.2324 227.427 17.8994 229.139 17.8994H230.739V17.1367C230.739 16.5352 230.571 16.0553 230.234 15.6973C229.898 15.332 229.386 15.1494 228.698 15.1494C228.104 15.1494 227.617 15.2998 227.237 15.6006C226.858 15.8942 226.668 16.2702 226.668 16.7285H224.058C224.058 16.0911 224.269 15.4967 224.691 14.9453C225.114 14.3867 225.687 13.9499 226.41 13.6348C227.141 13.3197 227.953 13.1621 228.849 13.1621C230.209 13.1621 231.294 13.5059 232.104 14.1934C232.913 14.8737 233.328 15.8333 233.35 17.0723V22.3145C233.35 23.36 233.496 24.1943 233.79 24.8174V25H231.126ZM228.258 23.1201C228.773 23.1201 229.257 22.9948 229.708 22.7441C230.166 22.4935 230.51 22.1569 230.739 21.7344V19.543H229.332C228.365 19.543 227.638 19.7113 227.151 20.0479C226.664 20.3844 226.421 20.8607 226.421 21.4766C226.421 21.9779 226.586 22.3789 226.915 22.6797C227.252 22.9733 227.699 23.1201 228.258 23.1201ZM235.595 19.1025C235.595 17.3122 236.01 15.8763 236.841 14.7949C237.672 13.7064 238.785 13.1621 240.182 13.1621C241.413 13.1621 242.409 13.5918 243.168 14.4512V8.5H245.778V25H243.415L243.286 23.7969C242.506 24.7422 241.464 25.2148 240.16 25.2148C238.799 25.2148 237.697 24.667 236.852 23.5713C236.014 22.4756 235.595 20.986 235.595 19.1025ZM238.205 19.3281C238.205 20.5098 238.431 21.4336 238.882 22.0996C239.34 22.7585 239.988 23.0879 240.826 23.0879C241.893 23.0879 242.674 22.6117 243.168 21.6592V16.6963C242.688 15.7653 241.915 15.2998 240.848 15.2998C240.003 15.2998 239.351 15.6364 238.893 16.3096C238.434 16.9756 238.205 17.9818 238.205 19.3281ZM253.62 25.2148C251.966 25.2148 250.623 24.6956 249.592 23.6572C248.568 22.6117 248.056 21.2223 248.056 19.4893V19.167C248.056 18.0068 248.278 16.972 248.722 16.0625C249.173 15.1458 249.803 14.4333 250.612 13.9248C251.422 13.4163 252.324 13.1621 253.319 13.1621C254.902 13.1621 256.123 13.667 256.982 14.6768C257.849 15.6865 258.282 17.1152 258.282 18.9629V20.0156H250.688C250.766 20.9753 251.085 21.7344 251.644 22.293C252.209 22.8516 252.918 23.1309 253.771 23.1309C254.966 23.1309 255.94 22.6475 256.692 21.6807L258.1 23.0234C257.634 23.7181 257.011 24.2588 256.23 24.6455C255.457 25.0251 254.587 25.2148 253.62 25.2148ZM253.309 15.2568C252.592 15.2568 252.012 15.5075 251.568 16.0088C251.132 16.5101 250.852 17.2083 250.73 18.1035H255.704V17.9102C255.647 17.0365 255.414 16.3776 255.006 15.9336C254.598 15.4824 254.032 15.2568 253.309 15.2568ZM266.403 15.7617C266.06 15.7044 265.705 15.6758 265.34 15.6758C264.144 15.6758 263.338 16.1341 262.923 17.0508V25H260.312V13.377H262.805L262.869 14.6768C263.499 13.667 264.373 13.1621 265.49 13.1621C265.863 13.1621 266.171 13.2122 266.414 13.3125L266.403 15.7617Z" fill="#0B315F"/>
<path d="M80.3857 40.2231H76.7295V44H74.8252V34.7578H80.8428V36.3003H76.7295V38.687H80.3857V40.2231ZM81.4014 40.5024C81.4014 39.8211 81.5326 39.2139 81.7949 38.6807C82.0573 38.1475 82.4339 37.7349 82.9248 37.4429C83.4199 37.1509 83.9933 37.0049 84.645 37.0049C85.5718 37.0049 86.3271 37.2884 86.9111 37.8555C87.4993 38.4225 87.8273 39.1927 87.895 40.166L87.9077 40.6357C87.9077 41.6895 87.6136 42.5358 87.0254 43.1748C86.4372 43.8096 85.6479 44.127 84.6577 44.127C83.6675 44.127 82.8761 43.8096 82.2837 43.1748C81.6955 42.54 81.4014 41.6768 81.4014 40.585V40.5024ZM83.2358 40.6357C83.2358 41.2874 83.3586 41.7868 83.604 42.1338C83.8494 42.4766 84.2007 42.6479 84.6577 42.6479C85.1021 42.6479 85.4491 42.4787 85.6987 42.1401C85.9484 41.7974 86.0732 41.2515 86.0732 40.5024C86.0732 39.8634 85.9484 39.3683 85.6987 39.0171C85.4491 38.6659 85.0978 38.4902 84.645 38.4902C84.1965 38.4902 83.8494 38.6659 83.604 39.0171C83.3586 39.3641 83.2358 39.9036 83.2358 40.6357ZM92.897 38.8521C92.6473 38.8182 92.4272 38.8013 92.2368 38.8013C91.5428 38.8013 91.0879 39.0361 90.8721 39.5059V44H89.0376V37.1318H90.7705L90.8213 37.9507C91.1895 37.3201 91.6994 37.0049 92.3511 37.0049C92.5542 37.0049 92.7446 37.0324 92.9224 37.0874L92.897 38.8521ZM104.456 42.832C104.113 43.2425 103.629 43.562 103.002 43.7905C102.376 44.0148 101.682 44.127 100.92 44.127C100.121 44.127 99.4181 43.9535 98.813 43.6064C98.2121 43.2552 97.7466 42.7474 97.4165 42.083C97.0907 41.4186 96.9235 40.6379 96.915 39.7407V39.1123C96.915 38.1898 97.0695 37.3921 97.3784 36.7192C97.6916 36.0422 98.1401 35.5259 98.7241 35.1704C99.3123 34.8107 100 34.6309 100.787 34.6309C101.883 34.6309 102.74 34.8932 103.358 35.418C103.976 35.9385 104.342 36.6981 104.456 37.6968H102.603C102.518 37.1678 102.33 36.7806 102.038 36.5352C101.75 36.2897 101.352 36.167 100.844 36.167C100.197 36.167 99.7038 36.4103 99.3652 36.897C99.0267 37.3836 98.8553 38.1073 98.8511 39.0679V39.6582C98.8511 40.6273 99.0352 41.3594 99.4033 41.8545C99.7715 42.3496 100.311 42.5972 101.022 42.5972C101.737 42.5972 102.247 42.4448 102.552 42.1401V40.5469H100.819V39.144H104.456V42.832ZM105.599 40.5024C105.599 39.8211 105.73 39.2139 105.992 38.6807C106.255 38.1475 106.631 37.7349 107.122 37.4429C107.617 37.1509 108.191 37.0049 108.842 37.0049C109.769 37.0049 110.524 37.2884 111.108 37.8555C111.697 38.4225 112.025 39.1927 112.092 40.166L112.105 40.6357C112.105 41.6895 111.811 42.5358 111.223 43.1748C110.634 43.8096 109.845 44.127 108.855 44.127C107.865 44.127 107.073 43.8096 106.481 43.1748C105.893 42.54 105.599 41.6768 105.599 40.585V40.5024ZM107.433 40.6357C107.433 41.2874 107.556 41.7868 107.801 42.1338C108.047 42.4766 108.398 42.6479 108.855 42.6479C109.299 42.6479 109.646 42.4787 109.896 42.1401C110.146 41.7974 110.271 41.2515 110.271 40.5024C110.271 39.8634 110.146 39.3683 109.896 39.0171C109.646 38.6659 109.295 38.4902 108.842 38.4902C108.394 38.4902 108.047 38.6659 107.801 39.0171C107.556 39.3641 107.433 39.9036 107.433 40.6357ZM112.949 40.5024C112.949 39.8211 113.08 39.2139 113.343 38.6807C113.605 38.1475 113.982 37.7349 114.473 37.4429C114.968 37.1509 115.541 37.0049 116.193 37.0049C117.12 37.0049 117.875 37.2884 118.459 37.8555C119.047 38.4225 119.375 39.1927 119.443 40.166L119.456 40.6357C119.456 41.6895 119.161 42.5358 118.573 43.1748C117.985 43.8096 117.196 44.127 116.206 44.127C115.215 44.127 114.424 43.8096 113.832 43.1748C113.243 42.54 112.949 41.6768 112.949 40.585V40.5024ZM114.784 40.6357C114.784 41.2874 114.906 41.7868 115.152 42.1338C115.397 42.4766 115.749 42.6479 116.206 42.6479C116.65 42.6479 116.997 42.4787 117.247 42.1401C117.496 41.7974 117.621 41.2515 117.621 40.5024C117.621 39.8634 117.496 39.3683 117.247 39.0171C116.997 38.6659 116.646 38.4902 116.193 38.4902C115.744 38.4902 115.397 38.6659 115.152 39.0171C114.906 39.3641 114.784 39.9036 114.784 40.6357ZM120.319 40.5151C120.319 39.4614 120.569 38.613 121.068 37.9697C121.571 37.3265 122.249 37.0049 123.099 37.0049C123.852 37.0049 124.438 37.263 124.857 37.7793L124.934 37.1318H126.597V43.7715C126.597 44.3724 126.459 44.895 126.184 45.3394C125.913 45.7837 125.53 46.1222 125.035 46.355C124.54 46.5877 123.96 46.7041 123.296 46.7041C122.792 46.7041 122.301 46.6025 121.823 46.3994C121.345 46.2005 120.983 45.9424 120.738 45.625L121.55 44.5078C122.007 45.0199 122.562 45.2759 123.213 45.2759C123.7 45.2759 124.079 45.1447 124.35 44.8823C124.62 44.6242 124.756 44.256 124.756 43.7778V43.4097C124.333 43.8879 123.776 44.127 123.086 44.127C122.261 44.127 121.593 43.8053 121.081 43.1621C120.573 42.5146 120.319 41.6577 120.319 40.5913V40.5151ZM122.153 40.6484C122.153 41.2705 122.278 41.7593 122.528 42.1147C122.778 42.466 123.12 42.6416 123.556 42.6416C124.115 42.6416 124.515 42.4321 124.756 42.0132V39.125C124.51 38.7061 124.115 38.4966 123.569 38.4966C123.129 38.4966 122.782 38.6764 122.528 39.0361C122.278 39.3958 122.153 39.9333 122.153 40.6484ZM129.948 44H128.107V34.25H129.948V44ZM134.626 44.127C133.619 44.127 132.798 43.818 132.164 43.2002C131.533 42.5824 131.218 41.7593 131.218 40.731V40.5532C131.218 39.8634 131.351 39.2477 131.618 38.7061C131.884 38.1602 132.261 37.7412 132.748 37.4492C133.238 37.153 133.797 37.0049 134.423 37.0049C135.363 37.0049 136.101 37.3011 136.639 37.8936C137.18 38.486 137.451 39.326 137.451 40.4136V41.1626H133.078C133.137 41.6112 133.315 41.9709 133.611 42.2417C133.911 42.5125 134.29 42.6479 134.747 42.6479C135.454 42.6479 136.006 42.3919 136.404 41.8799L137.305 42.8892C137.03 43.2785 136.658 43.5832 136.188 43.8032C135.718 44.019 135.198 44.127 134.626 44.127ZM134.417 38.4902C134.053 38.4902 133.757 38.613 133.528 38.8584C133.304 39.1038 133.16 39.4551 133.097 39.9121H135.648V39.7661C135.64 39.3599 135.53 39.0467 135.318 38.8267C135.107 38.6024 134.806 38.4902 134.417 38.4902ZM143.761 40.7437V44H141.856V34.7578H145.462C146.156 34.7578 146.765 34.8848 147.29 35.1387C147.819 35.3926 148.225 35.7544 148.509 36.2241C148.792 36.6896 148.934 37.2207 148.934 37.8174C148.934 38.723 148.623 39.4382 148.001 39.9629C147.383 40.4834 146.526 40.7437 145.43 40.7437H143.761ZM143.761 39.2012H145.462C145.965 39.2012 146.348 39.0827 146.611 38.8457C146.877 38.6087 147.011 38.2702 147.011 37.8301C147.011 37.3773 146.877 37.0112 146.611 36.7319C146.344 36.4526 145.976 36.3088 145.506 36.3003H143.761V39.2012ZM151.917 37.8809C152.404 37.2969 153.016 37.0049 153.752 37.0049C155.242 37.0049 155.997 37.8703 156.018 39.6011V44H154.184V39.6519C154.184 39.2583 154.099 38.9684 153.93 38.7822C153.76 38.5918 153.479 38.4966 153.085 38.4966C152.548 38.4966 152.159 38.7039 151.917 39.1187V44H150.083V34.25H151.917V37.8809ZM157.116 40.5024C157.116 39.8211 157.247 39.2139 157.51 38.6807C157.772 38.1475 158.149 37.7349 158.64 37.4429C159.135 37.1509 159.708 37.0049 160.36 37.0049C161.287 37.0049 162.042 37.2884 162.626 37.8555C163.214 38.4225 163.542 39.1927 163.61 40.166L163.623 40.6357C163.623 41.6895 163.328 42.5358 162.74 43.1748C162.152 43.8096 161.363 44.127 160.373 44.127C159.382 44.127 158.591 43.8096 157.999 43.1748C157.41 42.54 157.116 41.6768 157.116 40.585V40.5024ZM158.951 40.6357C158.951 41.2874 159.073 41.7868 159.319 42.1338C159.564 42.4766 159.916 42.6479 160.373 42.6479C160.817 42.6479 161.164 42.4787 161.414 42.1401C161.663 41.7974 161.788 41.2515 161.788 40.5024C161.788 39.8634 161.663 39.3683 161.414 39.0171C161.164 38.6659 160.813 38.4902 160.36 38.4902C159.911 38.4902 159.564 38.6659 159.319 39.0171C159.073 39.3641 158.951 39.9036 158.951 40.6357ZM166.949 35.4434V37.1318H168.123V38.4775H166.949V41.9053C166.949 42.1592 166.997 42.3411 167.095 42.4512C167.192 42.5612 167.378 42.6162 167.653 42.6162C167.856 42.6162 168.036 42.6014 168.193 42.5718V43.9619C167.833 44.0719 167.463 44.127 167.082 44.127C165.796 44.127 165.14 43.4774 165.114 42.1782V38.4775H164.111V37.1318H165.114V35.4434H166.949ZM168.669 40.5024C168.669 39.8211 168.8 39.2139 169.062 38.6807C169.325 38.1475 169.701 37.7349 170.192 37.4429C170.688 37.1509 171.261 37.0049 171.913 37.0049C172.839 37.0049 173.595 37.2884 174.179 37.8555C174.767 38.4225 175.095 39.1927 175.163 40.166L175.175 40.6357C175.175 41.6895 174.881 42.5358 174.293 43.1748C173.705 43.8096 172.916 44.127 171.925 44.127C170.935 44.127 170.144 43.8096 169.551 43.1748C168.963 42.54 168.669 41.6768 168.669 40.585V40.5024ZM170.503 40.6357C170.503 41.2874 170.626 41.7868 170.872 42.1338C171.117 42.4766 171.468 42.6479 171.925 42.6479C172.37 42.6479 172.717 42.4787 172.966 42.1401C173.216 41.7974 173.341 41.2515 173.341 40.5024C173.341 39.8634 173.216 39.3683 172.966 39.0171C172.717 38.6659 172.365 38.4902 171.913 38.4902C171.464 38.4902 171.117 38.6659 170.872 39.0171C170.626 39.3641 170.503 39.9036 170.503 40.6357ZM180.025 42.1021C180.025 41.8778 179.913 41.7021 179.688 41.5752C179.468 41.444 179.113 41.3276 178.622 41.2261C176.989 40.8833 176.172 40.1893 176.172 39.144C176.172 38.5347 176.424 38.0269 176.927 37.6206C177.435 37.2101 178.097 37.0049 178.914 37.0049C179.786 37.0049 180.482 37.2101 181.002 37.6206C181.527 38.0311 181.79 38.5643 181.79 39.2202H179.955C179.955 38.9578 179.87 38.742 179.701 38.5728C179.532 38.3993 179.267 38.3125 178.908 38.3125C178.599 38.3125 178.36 38.3823 178.19 38.522C178.021 38.6616 177.937 38.8394 177.937 39.0552C177.937 39.2583 178.032 39.4233 178.222 39.5503C178.417 39.673 178.743 39.7809 179.2 39.874C179.657 39.9629 180.042 40.0645 180.355 40.1787C181.324 40.5342 181.809 41.1499 181.809 42.0259C181.809 42.6522 181.54 43.16 181.002 43.5493C180.465 43.9344 179.771 44.127 178.92 44.127C178.345 44.127 177.833 44.0254 177.384 43.8223C176.94 43.6149 176.591 43.3335 176.337 42.978C176.083 42.6183 175.956 42.2311 175.956 41.8164H177.695C177.712 42.1423 177.833 42.3919 178.057 42.5654C178.281 42.7389 178.582 42.8257 178.958 42.8257C179.31 42.8257 179.574 42.7601 179.752 42.6289C179.934 42.4935 180.025 42.3179 180.025 42.1021Z" fill="#0B315F"/>
<rect width="53" height="53" rx="12" fill="#2661F6"/>
<mask id="mask0" mask-type="alpha" maskUnits="userSpaceOnUse" x="15" y="11" width="27" height="30">
<path d="M39.3914 23.3944C41.5399 24.6349 41.5399 27.736 39.3914 28.9765L20.0546 40.1406C17.906 41.3811 15.2204 39.8305 15.2204 37.3496L15.2204 15.0213C15.2204 12.5404 17.906 10.9898 20.0546 12.2303L39.3914 23.3944Z" fill="#3C4E6D"/>
</mask>
<g mask="url(#mask0)">
<path d="M39.3914 23.3944C41.5399 24.6349 41.5399 27.736 39.3914 28.9765L20.0546 40.1406C17.906 41.3811 15.2204 39.8305 15.2204 37.3496L15.2204 15.0213C15.2204 12.5404 17.906 10.9898 20.0546 12.2303L39.3914 23.3944Z" fill="white"/>
<path d="M34.7584 26.534L20.2558 34.9071C19.9872 35.0622 19.6515 34.8684 19.6515 34.5582L19.6515 17.8121C19.6515 17.502 19.9872 17.3081 20.2558 17.4632L34.7584 25.8363C35.027 25.9913 35.027 26.379 34.7584 26.534Z" stroke="#2661F6" stroke-width="2.4171"/>
<line x1="24.4859" y1="13.2939" x2="24.4859" y2="32.6308" stroke="#2661F6" stroke-width="2.4171"/>
</g>
</svg>
