<svg width="256" height="256" viewBox="0 0 256 256" fill="none" xmlns="http://www.w3.org/2000/svg">
<rect width="256" height="256" rx="57.9623" fill="#2661F6"/>
<mask id="mask0" mask-type="alpha" maskUnits="userSpaceOnUse" x="73" y="56" width="126" height="140">
<path d="M190.267 112.999C200.645 118.991 200.645 133.97 190.267 139.962L96.8666 193.886C86.4888 199.878 73.5165 192.388 73.5165 180.405L73.5165 72.5555C73.5165 60.5722 86.4888 53.0827 96.8666 59.0743L190.267 112.999Z" fill="#3C4E6D"/>
</mask>
<g mask="url(#mask0)">
<path d="M190.267 112.999C200.645 118.991 200.645 133.97 190.267 139.962L96.8666 193.886C86.4888 199.878 73.5165 192.388 73.5165 180.405L73.5165 72.5555C73.5165 60.5722 86.4888 53.0827 96.8666 59.0743L190.267 112.999Z" fill="white"/>
<path d="M167.891 128.165L97.8402 168.609C96.543 169.358 94.9214 168.421 94.9214 166.923L94.9214 86.0363C94.9214 84.5384 96.543 83.6022 97.8402 84.3511L167.891 124.795C169.188 125.544 169.188 127.416 167.891 128.165Z" stroke="#2661F6" stroke-width="11.6751"/>
<line x1="118.271" y1="64.2129" x2="118.271" y2="157.613" stroke="#2661F6" stroke-width="11.6751"/>
</g>
</svg>
