<svg width="94" height="96" viewBox="0 0 94 96" fill="none" xmlns="http://www.w3.org/2000/svg">
<path d="M25.8001 76.0001L20.3001 75.5001L18.2001 70.4001C17.7001 69.1001 16.4001 68.2001 15.0001 68.2001C13.6001 68.2001 12.3001 69.0001 11.8001 70.4001L9.70014 75.5001L4.00014 76.0001C2.60014 76.1001 1.40014 77.1001 0.900135 78.4001C0.500135 79.8001 0.900135 81.2001 2.00014 82.1001L6.20014 85.7001L4.90014 91.1001C4.60014 92.5001 5.10014 93.9001 6.30014 94.7001C7.40014 95.5001 9.00014 95.6001 10.2001 94.9001L14.9001 92.0001L19.7001 94.9001C20.3001 95.2001 20.9001 95.4001 21.5001 95.4001C22.2001 95.4001 22.9001 95.2001 23.6001 94.7001C24.7001 93.9001 25.3001 92.4001 25.0001 91.1001L23.7001 85.7001L27.9001 82.1001C29.0001 81.2001 29.4001 79.7001 29.0001 78.4001C28.5001 77.1001 27.3001 76.1001 25.8001 76.0001ZM20.8001 82.9001C19.8001 83.8001 19.4001 85.1001 19.7001 86.4001L20.8001 91.0001L16.7001 88.5001C16.1001 88.2001 15.5001 88.0001 14.9001 88.0001C14.3001 88.0001 13.6001 88.2001 13.1001 88.5001L9.00014 91.0001L10.1001 86.4001C10.4001 85.1001 10.0001 83.8001 9.00014 82.9001L5.40014 79.8001L10.1001 79.4001C11.4001 79.3001 12.5001 78.5001 13.1001 77.3001L14.9001 72.9001L16.7001 77.3001C17.2001 78.5001 18.3001 79.3001 19.7001 79.4001L24.4001 79.8001L20.8001 82.9001Z" fill="black"/>
<path d="M57.9002 76.0001L52.4002 75.5001L50.3002 70.4001C49.8002 69.1001 48.5002 68.2001 47.1002 68.2001C45.7002 68.2001 44.4002 69.0001 43.9002 70.4001L41.8002 75.5001L36.1002 76.0001C34.7002 76.1001 33.5002 77.1001 33.0002 78.4001C32.6002 79.8001 33.0002 81.2001 34.1002 82.1001L38.3002 85.7001L37.0002 91.2001C36.7002 92.6001 37.2002 94.0001 38.4002 94.8001C39.5002 95.6001 41.1002 95.7001 42.3002 95.0001L47.0002 92.1001L51.8002 95.0001C52.4002 95.3001 53.0002 95.5001 53.6002 95.5001C54.3002 95.5001 55.0002 95.3001 55.7002 94.8001C56.8002 94.0001 57.4002 92.5001 57.1002 91.2001L55.8002 85.8001L60.0002 82.2001C61.1002 81.3001 61.5002 79.8001 61.1002 78.5001C60.5002 77.1001 59.3002 76.1001 57.9002 76.0001ZM52.9002 82.9001C51.9002 83.8001 51.5002 85.1001 51.8002 86.4001L52.9002 91.0001L48.8002 88.5001C47.7002 87.8001 46.3002 87.8001 45.1002 88.5001L41.1002 91.0001L42.2002 86.4001C42.5002 85.1001 42.1002 83.8001 41.1002 82.9001L37.5002 79.8001L42.2002 79.4001C43.5002 79.3001 44.6002 78.5001 45.2002 77.3001L47.0002 72.9001L48.8002 77.3001C49.3002 78.5001 50.4002 79.3001 51.8002 79.4001L56.5002 79.8001L52.9002 82.9001Z" fill="black"/>
<path d="M93.0003 78.4001C92.6003 77.0001 91.4003 76.1001 89.9003 76.0001L84.4003 75.5001L82.3003 70.4001C81.8003 69.1001 80.5003 68.2001 79.1003 68.2001C77.7003 68.2001 76.4003 69.0001 75.9003 70.4001L73.8003 75.5001L68.2003 76.0001C66.8003 76.1001 65.6003 77.1001 65.1003 78.4001C64.7003 79.8001 65.1003 81.2001 66.2003 82.1001L70.4003 85.7001L69.1003 91.1001C68.8003 92.5001 69.3003 93.9001 70.5003 94.7001C71.6003 95.5001 73.2003 95.6001 74.4003 94.9001L79.1003 92.0001L83.9003 94.9001C84.5003 95.2001 85.1003 95.4001 85.7003 95.4001C86.4003 95.4001 87.1003 95.2001 87.8003 94.7001C88.9003 93.9001 89.5003 92.4001 89.2003 91.1001L87.9003 85.7001L92.1003 82.1001C93.1003 81.2001 93.5003 79.8001 93.0003 78.4001ZM85.0003 82.9001C84.0003 83.8001 83.6003 85.1001 83.9003 86.4001L85.0003 91.0001L80.9003 88.5001C79.8003 87.8001 78.4003 87.8001 77.3003 88.5001L73.2003 91.0001L74.3003 86.4001C74.6003 85.1001 74.2003 83.8001 73.2003 82.9001L69.6003 79.8001L74.3003 79.4001C75.6003 79.3001 76.7003 78.5001 77.3003 77.3001L79.1003 72.9001L80.9003 77.3001C81.4003 78.5001 82.5003 79.3001 83.9003 79.4001L88.6003 79.8001L85.0003 82.9001Z" fill="black"/>
<path d="M19.1002 59H33.8002C34.6002 59.2 35.4002 59.6 36.5002 60.2C39.5002 61.7 44.0002 64.1 53.4002 64.1H70.1002C73.5002 64.1 76.4002 61.7 76.9002 58.6C77.2002 56.7 76.7002 54.7 75.4002 53.2C76.6002 52.2 77.4002 50.9 77.6002 49.3C77.9002 47.4 77.4002 45.4 76.1002 43.9C77.3002 42.9 78.1002 41.6 78.3002 40C78.6002 38.1 78.1002 36.1 76.8002 34.6C78.0002 33.6 78.8002 32.3 79.0002 30.7C79.3002 28.8 78.8002 26.8 77.5002 25.3C76.2002 23.8 74.4002 22.9 72.4002 22.9H58.4002C58.8002 20.6 59.2002 18.8 59.7002 17.1C60.3002 14.6 60.9002 12.2 61.3002 8.30003C61.7002 3.80003 58.6002 1.20003 55.6002 0.700032C52.3002 0.200032 48.6002 1.80003 47.6002 6.00003C45.3002 16.4 36.4002 23.5 33.8002 25.5C33.7002 25.6 33.6002 25.7 33.4002 25.8H19.1002C16.7002 25.8 14.7002 27.8 14.7002 30.2V54.8C14.7002 57 16.7002 59 19.1002 59ZM36.1002 28.8C36.2002 28.8 36.2002 28.7 36.3002 28.7C39.2002 26.6 49.1002 18.7 51.7002 6.90003C52.2002 4.70003 54.1002 4.50003 55.1002 4.60003C56.4002 4.80003 57.7002 5.80003 57.5002 7.80003C57.1002 11.4 56.6002 13.7 56.0002 16C55.5002 18 55.0002 20 54.6002 22.9C54.4002 23.9 54.7002 24.9 55.4002 25.6C56.0002 26.3 57.0002 26.8 58.0002 26.8H72.8002C73.6002 26.8 74.3002 27.1 74.8002 27.7C75.3002 28.3 75.5002 29.1 75.4002 29.9C75.2002 31.1 73.9002 32.1 72.5002 32.1H70.3002C69.2002 32.1 68.3002 33 68.3002 34.1C68.3002 35.2 69.2002 36.1 70.3002 36.1H72.0002C72.8002 36.1 73.5002 36.4 74.0002 37.1C74.5002 37.7 74.7002 38.5 74.6002 39.3C74.4002 40.5 73.1002 41.5 71.7002 41.5H69.5002C68.4002 41.5 67.5002 42.4 67.5002 43.5C67.5002 44.6 68.4002 45.5 69.5002 45.5H71.2002C72.0002 45.5 72.7002 45.8 73.2002 46.5C73.7002 47.1 73.9002 47.9 73.8002 48.7C73.6002 49.9 72.3002 50.9 70.9002 50.9H68.7002C67.6002 50.9 66.7002 51.8 66.7002 52.9C66.7002 54 67.6002 54.9 68.7002 54.9H70.4002C71.2002 54.9 71.9002 55.2 72.4002 55.9C72.9002 56.5 73.1002 57.3 73.0002 58.1C72.8002 59.4 71.5002 60.3 70.1002 60.3H53.4002C44.9002 60.3 41.1002 58.3 38.3002 56.9C37.6002 56.5 36.8002 56.1 36.1002 55.8V28.8V28.8ZM18.7002 30C18.7002 29.8 18.9002 29.6 19.1002 29.6H32.1002V55H19.1002C18.9002 55 18.7002 54.8 18.7002 54.6V30V30Z" fill="black"/>
<path d="M25.4003 51.4001C27.1124 51.4001 28.5003 50.0122 28.5003 48.3001C28.5003 46.588 27.1124 45.2001 25.4003 45.2001C23.6882 45.2001 22.3003 46.588 22.3003 48.3001C22.3003 50.0122 23.6882 51.4001 25.4003 51.4001Z" fill="black"/>
</svg>
